<svg viewBox="0 0 500 500" xmlns="http://www.w3.org/2000/svg">
  <defs></defs>
  <path d="M 160.759 395.973 C 154.864 395.973 150.04 391.242 150.04 385.46 L 150.04 133.146 C 150.04 127.364 154.864 122.633 160.759 122.633 L 267.949 122.633 L 267.949 175.198 C 267.949 186.828 277.529 196.224 289.387 196.224 L 342.982 196.224 L 342.982 385.46 C 342.982 391.242 338.158 395.973 332.263 395.973 L 160.759 395.973 Z M 160.759 91.093 C 137.11 91.093 117.883 109.951 117.883 133.146 L 117.883 385.46 C 117.883 408.654 137.11 427.512 160.759 427.512 L 332.263 427.512 C 355.912 427.512 375.139 408.654 375.139 385.46 L 375.139 192.61 C 375.139 181.44 370.65 170.73 362.611 162.845 L 301.915 103.381 C 293.875 95.496 283.022 91.093 271.634 91.093 L 160.759 91.093 Z M 225.073 259.303 C 225.073 243.117 207.208 233.001 192.916 241.094 C 186.283 244.85 182.197 251.791 182.197 259.303 C 182.197 275.489 200.061 285.605 214.354 277.512 C 220.987 273.756 225.073 266.815 225.073 259.303 Z M 271.433 290.119 C 269.423 287.294 266.14 285.585 262.589 285.585 C 259.039 285.585 255.756 287.294 253.746 290.119 L 226.078 329.346 L 218.106 316.796 C 216.163 313.708 212.679 311.868 208.994 311.868 C 205.31 311.868 201.893 313.708 199.883 316.796 L 173.086 358.848 C 171.009 362.068 170.942 366.142 172.818 369.493 C 174.694 372.844 178.311 374.881 182.197 374.881 L 214.354 374.881 L 235.792 374.881 L 262.589 374.881 L 310.825 374.881 C 314.844 374.881 318.462 372.713 320.338 369.23 C 322.214 365.748 321.946 361.608 319.668 358.389 L 271.433 290.053 L 271.433 290.119 Z" style=""></path>
</svg>